<?xml version="1.0" standalone="no"?>
<!DOCTYPE svg PUBLIC "-//W3C//DTD SVG 20010904//EN"
 "http://www.w3.org/TR/2001/REC-SVG-20010904/DTD/svg10.dtd">
<svg version="1.0" xmlns="http://www.w3.org/2000/svg"
 width="1196.000000pt" height="651.000000pt" viewBox="0 0 1196.000000 651.000000"
 preserveAspectRatio="xMidYMid meet">
<metadata>
Created by potrace 1.15, written by Peter Selinger 2001-2017
</metadata>
<g transform="translate(0.000000,651.000000) scale(0.100000,-0.100000)"
fill="#000000" stroke="none">
<path d="M3480 6355 c0 -33 -1 -34 -29 -29 -23 5 -35 1 -55 -19 -28 -28 -33
-56 -15 -90 17 -32 26 -35 86 -35 l53 1 0 103 c0 97 -1 104 -20 104 -16 0 -20
-7 -20 -35z"/>
<path d="M5488 6358 c-3 -30 -5 -33 -35 -30 -44 5 -73 -26 -73 -76 0 -54 21
-70 93 -69 l57 0 0 103 c0 96 -1 104 -19 104 -15 0 -21 -8 -23 -32z"/>
<path d="M5948 6358 c-3 -30 -5 -33 -35 -30 -44 5 -73 -26 -73 -76 0 -54 21
-70 93 -69 l57 0 0 103 c0 96 -1 104 -19 104 -15 0 -21 -8 -23 -32z"/>
<path d="M8830 6355 c0 -33 -1 -34 -30 -28 -61 12 -105 -70 -66 -122 10 -15
28 -20 75 -21 l61 -3 0 105 c0 97 -1 104 -20 104 -16 0 -20 -7 -20 -35z"/>
<path d="M9350 6285 c0 -97 1 -105 19 -105 17 0 20 8 23 53 3 48 5 52 28 52
23 0 25 -4 28 -52 3 -45 6 -53 23 -53 17 0 19 7 19 65 0 60 -2 66 -25 77 -19
8 -31 8 -50 0 -24 -11 -25 -11 -25 28 0 33 -3 40 -20 40 -19 0 -20 -7 -20
-105z"/>
<path d="M10010 6286 l0 -104 51 0 c41 -1 56 4 75 23 30 30 32 77 4 105 -22
22 -42 25 -71 10 -17 -10 -19 -7 -19 30 0 33 -3 40 -20 40 -19 0 -20 -7 -20
-104z"/>
<path d="M10860 6355 c0 -33 -1 -34 -29 -29 -23 5 -35 1 -55 -19 -28 -28 -33
-56 -15 -90 17 -32 26 -35 86 -35 l53 1 0 103 c0 97 -1 104 -20 104 -16 0 -20
-7 -20 -35z"/>
<path d="M11040 6285 c0 -97 1 -105 19 -105 17 0 20 8 23 53 3 48 5 52 28 52
23 0 25 -4 28 -52 3 -45 6 -53 23 -53 18 0 20 6 17 66 -4 79 -18 96 -68 77
l-30 -11 0 39 c0 32 -3 39 -20 39 -19 0 -20 -7 -20 -105z"/>
<path d="M2010 6280 l0 -100 50 0 c81 0 130 38 130 100 0 62 -49 100 -130 100
l-50 0 0 -100z"/>
<path d="M4890 6280 l0 -100 70 0 c63 0 70 2 70 20 0 17 -7 20 -45 20 -41 0
-45 2 -45 25 0 23 4 25 40 25 33 0 40 3 40 20 0 17 -7 20 -40 20 -29 0 -40 4
-40 15 0 11 12 15 45 15 38 0 45 3 45 20 0 18 -7 20 -70 20 l-70 0 0 -100z"/>
<path d="M2337 6323 c-18 -18 -4 -28 33 -25 49 5 53 -13 5 -22 -37 -7 -65 -29
-65 -51 0 -29 29 -43 90 -43 l60 0 0 54 c0 68 -22 94 -78 94 -21 0 -42 -3 -45
-7z"/>
<path d="M2512 6303 c-20 -20 -23 -31 -18 -61 7 -46 31 -65 74 -58 23 3 32 1
29 -7 -2 -7 -22 -12 -46 -12 -31 0 -41 -4 -39 -15 4 -22 74 -25 104 -5 22 14
24 22 24 99 l0 84 -52 0 c-41 0 -56 -5 -76 -25z"/>
<path d="M2837 6323 c-18 -18 -4 -28 33 -25 54 5 51 -11 -4 -26 -52 -13 -68
-42 -41 -72 12 -14 31 -18 76 -18 l59 0 0 58 c0 49 -4 61 -22 74 -22 16 -89
22 -101 9z"/>
<path d="M3000 6255 c0 -73 1 -75 25 -75 24 0 25 3 25 56 0 52 1 55 23 52 19
-3 22 -10 25 -55 3 -49 5 -53 28 -53 23 0 24 3 24 56 0 52 1 55 23 52 19 -3
22 -10 25 -55 3 -45 6 -53 23 -53 17 0 19 7 19 64 0 79 -14 96 -65 77 -27 -9
-38 -9 -54 1 -15 9 -25 9 -45 0 -16 -7 -26 -8 -26 -2 0 6 -11 10 -25 10 -24 0
-25 -2 -25 -75z"/>
<path d="M3585 6305 c-45 -44 -23 -109 40 -121 50 -9 85 2 85 27 0 18 -3 19
-14 10 -18 -15 -78 -10 -84 7 -2 8 11 12 47 12 50 0 51 1 51 29 0 59 -80 82
-125 36z"/>
<path d="M4107 6323 c-18 -18 -4 -28 33 -25 54 5 51 -11 -4 -26 -52 -13 -68
-42 -41 -72 12 -14 31 -18 76 -18 l59 0 0 58 c0 49 -4 61 -22 74 -22 16 -89
22 -101 9z"/>
<path d="M5596 6309 c-54 -42 -18 -129 53 -129 46 0 71 11 71 32 0 15 -3 17
-19 8 -28 -15 -67 -12 -81 5 -11 13 -5 15 44 15 53 0 56 1 56 25 0 58 -73 84
-124 44z"/>
<path d="M6056 6309 c-54 -42 -18 -129 53 -129 46 0 71 11 71 32 0 15 -3 17
-19 8 -28 -15 -67 -12 -81 5 -11 13 -5 15 44 15 53 0 56 1 56 25 0 58 -73 84
-124 44z"/>
<path d="M6483 6324 c-29 -13 -12 -29 26 -26 51 5 62 -14 13 -23 -47 -9 -62
-21 -62 -51 0 -31 23 -42 88 -42 l52 0 0 57 c0 31 -4 62 -9 70 -9 14 -87 25
-108 15z"/>
<path d="M7061 6317 c-59 -29 -45 -115 20 -131 44 -11 89 -1 89 19 0 11 -7 14
-25 9 -30 -7 -75 2 -75 16 0 6 25 10 55 10 55 0 55 0 49 28 -12 54 -62 76
-113 49z"/>
<path d="M7401 6317 c-59 -29 -45 -115 20 -131 44 -11 89 -1 89 19 0 11 -7 14
-25 9 -30 -7 -75 2 -75 16 0 6 25 10 55 10 55 0 55 0 49 28 -12 54 -62 76
-113 49z"/>
<path d="M7877 6323 c-18 -18 -4 -28 33 -25 49 5 53 -13 5 -22 -37 -7 -65 -29
-65 -51 0 -29 29 -43 90 -43 l60 0 0 54 c0 68 -22 94 -78 94 -21 0 -42 -3 -45
-7z"/>
<path d="M8276 6309 c-54 -43 -18 -129 54 -129 44 0 74 31 74 75 0 68 -72 98
-128 54z"/>
<path d="M8440 6255 c0 -73 1 -75 25 -75 24 0 25 3 25 55 0 51 2 55 24 55 28
0 36 -16 36 -71 0 -32 3 -39 20 -39 18 0 20 7 20 59 0 80 -28 109 -81 81 -13
-7 -19 -7 -19 0 0 5 -11 10 -25 10 -24 0 -25 -2 -25 -75z"/>
<path d="M8936 6309 c-54 -42 -18 -129 53 -129 46 0 71 11 71 32 0 15 -3 17
-19 8 -28 -15 -67 -12 -81 5 -11 13 -5 15 44 15 53 0 56 1 56 25 0 58 -73 84
-124 44z"/>
<path d="M9553 6323 c-7 -2 -13 -11 -13 -18 0 -9 11 -12 39 -8 50 7 62 -13 13
-22 -47 -9 -62 -21 -62 -51 0 -31 23 -42 88 -42 l52 0 0 64 c0 52 -3 65 -19
74 -20 10 -76 12 -98 3z"/>
<path d="M9720 6255 c0 -68 2 -75 19 -75 17 0 20 8 23 52 2 42 7 54 22 56 25
5 36 -14 36 -65 0 -36 3 -43 19 -43 17 0 20 8 23 53 3 45 6 52 26 55 21 3 22
0 22 -52 0 -53 1 -56 25 -56 24 0 25 3 25 59 0 80 -28 109 -80 81 -13 -7 -27
-6 -44 2 -20 8 -32 8 -51 0 -15 -7 -25 -8 -25 -2 0 6 -9 10 -20 10 -18 0 -20
-7 -20 -75z"/>
<path d="M10346 6309 c-54 -42 -18 -129 53 -129 46 0 71 11 71 32 0 15 -3 17
-19 8 -28 -15 -67 -12 -81 5 -11 13 -5 15 44 15 53 0 56 1 56 25 0 58 -73 84
-124 44z"/>
<path d="M11245 6305 c-14 -13 -25 -36 -25 -50 0 -35 42 -75 78 -75 44 0 82
35 82 75 0 67 -87 99 -135 50z"/>
<path d="M11556 6309 c-54 -42 -18 -129 53 -129 46 0 71 11 71 32 0 15 -3 17
-19 8 -28 -15 -67 -12 -81 5 -11 13 -5 15 44 15 53 0 56 1 56 25 0 58 -73 84
-124 44z"/>
<path d="M2960 5485 l0 -374 -37 -10 c-21 -6 -333 -83 -693 -171 -360 -88
-664 -164 -675 -170 l-20 -10 20 5 c411 100 1375 337 1388 341 16 5 17 -17 17
-370 l0 -376 755 0 755 0 0 755 0 755 -755 0 -755 0 0 -375z m1500 195 l0
-170 -745 0 -745 0 0 170 0 170 745 0 745 0 0 -170z m0 -750 l0 -570 -745 0
-745 0 0 570 0 570 745 0 745 0 0 -570z"/>
<path d="M0 4655 l0 -755 755 0 755 0 2 172 3 171 823 -1744 822 -1744 0 -377
0 -378 755 0 755 0 0 708 1 707 1092 958 1092 958 3 -370 2 -371 755 0 755 0
0 755 0 755 -755 0 -755 0 0 -377 0 -378 -1093 -959 -1092 -959 -3 42 -3 41
-754 0 -755 0 -2 -362 -3 -361 -823 1744 -822 1744 0 568 0 567 -755 0 -755 0
0 -755z m1500 560 l0 -185 -745 0 -745 0 0 185 0 185 745 0 745 0 0 -185z m0
-750 l0 -555 -745 0 -745 0 0 555 0 555 745 0 745 0 0 -555z m6860 -565 l0
-190 -745 0 -745 0 0 190 0 190 745 0 745 0 0 -190z m0 -750 l0 -550 -745 0
-745 0 0 550 0 550 745 0 745 0 0 -550z m-3700 -1820 l0 -170 -745 0 -745 0 0
170 0 170 745 0 745 0 0 -170z m0 -750 l0 -570 -745 0 -745 0 0 570 0 570 745
0 745 0 0 -570z"/>
<path d="M7010 3870 c0 -60 4 -100 10 -100 6 0 10 16 10 35 0 32 3 35 28 35
43 0 72 26 72 65 0 42 -29 65 -82 65 l-38 0 0 -100z"/>
<path d="M4120 1306 l0 -104 46 2 c54 2 74 22 74 76 0 52 -30 78 -71 63 l-29
-11 0 39 c0 21 -4 39 -10 39 -6 0 -10 -41 -10 -104z"/>
<path d="M1545 4463 c18 -18 1481 -1209 1496 -1218 29 -17 -20 24 -741 612
-652 531 -793 644 -755 606z"/>
<path d="M3060 3155 l0 -755 755 0 755 0 0 755 0 755 -755 0 -755 0 0 -755z
m1500 575 l0 -170 -745 0 -745 0 0 170 0 170 745 0 745 0 0 -170z m0 -750 l0
-570 -745 0 -745 0 0 570 0 570 745 0 745 0 0 -570z"/>
<path d="M3510 3730 c-43 -43 -13 -130 45 -130 36 0 65 33 65 75 0 42 -29 75
-65 75 -14 0 -34 -9 -45 -20z"/>
<path d="M60 2055 l0 -755 755 0 755 0 2 370 3 370 695 -681 c382 -375 737
-722 788 -772 50 -51 92 -89 92 -86 0 2 -355 353 -790 779 l-790 774 0 378 0
378 -755 0 -755 0 0 -755z m1500 550 l0 -195 -745 0 -745 0 0 195 0 195 745 0
745 0 0 -195z m0 -750 l0 -545 -745 0 -745 0 0 545 0 545 745 0 745 0 0 -545z"/>
<path d="M480 2665 c0 -33 -2 -35 -25 -29 -16 4 -34 0 -50 -10 -20 -13 -25
-25 -25 -60 0 -58 28 -85 71 -69 16 6 29 7 29 2 0 -5 5 -9 10 -9 6 0 10 42 10
105 0 63 -4 105 -10 105 -5 0 -10 -16 -10 -35z"/>
</g>
</svg>
